Simulation
nRows=44
nColumns=15
endheader
time  TH_x TH_y TH_z SC_y  SC_z  SC_x  AC_y  AC_z  AC_x  GH_y  GH_z  GH_yy  EL_x  PS_y
5.745  0.000000  0.000000  0.000000  -54.15423774584921  16.515774354680797  31.057800556404565  54.36941421756017  12.750944004492961  18.603228912532238  20.728304641973764  39.8347239486601  -32.885935455765775  18.574512886199347  120.000000
5.80245  0.000000  0.000000  0.000000  -52.17344755270004  16.073217254750336  28.26534668894896  53.993493615507234  12.794896778009365  17.153449164010365  21.340326203046057  38.817257270802415  -33.884060290477166  18.87099219456962  120.000000
5.8599  0.000000  0.000000  0.000000  -49.8636364498277  15.403741255264602  24.78961116018225  53.54059136133218  12.849719473925237  15.570287815007164  22.005453882906362  37.51770784342148  -34.7992276911715  19.267885334447442  120.000000
5.91735  0.000000  0.000000  0.000000  -47.369844527058156  14.415662399814702  20.76252612908018  53.013208980344196  12.903909033386988  13.953011545079013  22.64034987826098  35.992373091084886  -35.48826177303312  19.673933205049313  120.000000
5.9748  0.000000  0.000000  0.000000  -44.855277501631136  13.056001341830132  16.35565214705071  52.408703849684144  12.95834052691526  12.408811927333922  23.182035930400772  34.29837244110766  -35.81789032564102  19.979682730968104  120.000000
6.03225  0.000000  0.000000  0.000000  -42.481988963463856  11.331282177620688  11.760775286426123  51.729516912768936  13.024389245342919  11.041667822486712  23.60705193647793  32.49220550125355  -35.703083999663804  20.092023956072662  120.000000
6.089700000000001  0.000000  0.000000  0.000000  -40.39368035976799  9.312664152260144  7.165864857793157  50.98850116974327  13.119941805156262  9.935175237510013  23.934718417919438  30.630019170991602  -35.127834233478914  19.96153170742928  120.000000
6.14715  0.000000  0.000000  0.000000  -38.69925252355312  7.1236169248627  2.7362545597743893  50.2104330729394  13.26445012318158  9.138625775969443  24.22198760911856  28.766143685433292  -34.14981017779458  19.58882098921485  120.000000
6.2046  0.000000  0.000000  0.000000  -37.45859036662846  4.915332188239387  -1.394776314581649  49.43126030442402  13.47383440233705  8.66287618355885  24.557627771005407  26.947304018676956  -32.89391170647996  19.010907329620803  120.000000
6.26205  0.000000  0.000000  0.000000  -36.67573089117973  2.838505612816948  -5.127439575113764  48.69440156983078  13.756022627556248  8.483997881972373  25.05515357755318  25.202398084974337  -31.535154382864928  18.285515804258125  120.000000
6.3195  0.000000  0.000000  0.000000  -36.297536108444255  1.0189321195687888  -8.392200750321006  48.045283870532  14.108151309389763  8.552535785183293  25.840954509252953  23.533601027214495  -30.27132749426146  17.48451673635578  120.000000
6.37695  0.000000  0.000000  0.000000  -36.22302019879638  -0.46068803930095725  -11.143475997995337  47.524832632868495  14.516631738527627  8.806979074155667  27.036597432363155  21.918048161806865  -29.291083700991578  16.691317197415778  120.000000
6.4344  0.000000  0.000000  0.000000  -36.327705842058364  -1.566671493456603  -13.355530230454864  47.16037036968751  14.960094611094098  9.18501752390269  28.732993684647962  20.322713504688743  -28.742465006872347  15.992814420878432  120.000000
6.49185  0.000000  0.000000  0.000000  -36.4992146486139  -2.3061494781187117  -15.023264954961737  46.95751206464278  15.411578746868512  9.630840202677659  30.97081827446585  18.72581949697787  -28.7159568105091  15.465687733477791  120.000000
6.549300000000001  0.000000  0.000000  0.000000  -36.66248760018071  -2.7154470729338467  -16.167208585158026  46.90007811827092  15.839915909906402  10.095678048525611  33.7354349120145  17.130400761725145  -29.24680704467884  15.1597096985123  120.000000
6.60675  0.000000  0.000000  0.000000  -36.78767347614928  -2.851073480547468  -16.83597066735713  46.959813413996756  16.21272934698346  10.534973532349314  36.958892438696  15.56563078629961  -30.322956526095595  15.087817715033474  120.000000
6.6642  0.000000  0.000000  0.000000  -36.88467807092632  -2.770774268258544  -17.099142287132782  47.10842939296201  16.501004419158427  10.912563946254389  40.5331496117573  14.080248995004101  -31.894506106499087  15.233869793760633  120.000000
6.72165  0.000000  0.000000  0.000000  -36.97866506019958  -2.533031452057648  -17.03689626453906  47.32111716577131  16.681881670911086  11.202138485514748  44.30351956771993  12.720764068657049  -33.85710218995393  15.560692979991614  120.000000
6.7791  0.000000  0.000000  0.000000  -37.091467683004446  -2.2052849513012314  -16.73149169210084  47.57600336117859  16.736473306665705  11.388286706495498  48.075338780259564  11.50635060889566  -36.04743964176167  16.01075420480848  120.000000
6.83655  0.000000  0.000000  0.000000  -37.226064559342376  -1.848073856262326  -16.255724933906244  47.85468613402573  16.654996167136094  11.468899243047074  51.65633667295809  10.424937596508135  -38.280107262016706  16.507382833923614  120.000000
6.894  0.000000  0.000000  0.000000  -37.36469516683568  -1.5039765586983398  -15.666391481605418  48.14528644031216  16.442080184002265  11.451647220780135  54.88774102714743  9.450265084777543  -40.383682719849105  16.96261806028609  120.000000
6.95145  0.000000  0.000000  0.000000  -37.481931494858756  -1.1983510199914482  -15.005955734750499  48.44243002969776  16.112965023414116  11.350089709221482  57.669020173289226  8.556646273360913  -42.236477274044624  17.296138396921595  120.000000
7.008900000000001  0.000000  0.000000  0.000000  -37.55821155400302  -0.9422241650723276  -14.305404552083262  48.74259554283225  15.68906460469499  11.18062836561535  59.95435210319901  7.727007575756093  -43.77435667531333  17.461819048047893  120.000000
7.06635  0.000000  0.000000  0.000000  -37.59093255908706  -0.7361792216166843  -13.586431542115694  49.03963921171533  15.195466445755915  10.959506138116037  61.7205283501295  6.956623898847337  -44.96585447864185  17.468723172093533  120.000000
7.1238  0.000000  0.000000  0.000000  -37.595008057146515  -0.5744201453158537  -12.863657946879261  49.323958818616816  14.65839014362092  10.700419364604912  62.94021739797836  6.251268427518114  -45.78503936754165  17.378238546393924  120.000000
7.18125  0.000000  0.000000  0.000000  -37.59455392424712  -0.448761414754794  -12.147153121270508  49.58560900932029  14.101787865105381  10.414363241424935  63.57687122448633  5.621725722473151  -46.19898497762897  17.276301413016256  120.000000
7.2387  0.000000  0.000000  0.000000  -37.61092853565484  -0.3510624372213619  -11.444237514080298  49.81778021983129  13.546011424009118  10.110027782123579  63.59054642324138  5.077368398277625  -46.16462897810178  17.237766412242372  120.000000
7.29615  0.000000  0.000000  0.000000  -37.6533784613279  -0.27436114627776015  -10.760284731397906  50.01884286932206  13.007215871498957  9.795087888041806  62.94869381127123  4.620953578616384  -45.63213721866355  17.299325125795573  120.000000
7.3536  0.000000  0.000000  0.000000  -37.716154904004924  -0.21357929410708182  -10.099575445651224  50.192077931642984  12.497079805059467  9.477148021524783  61.64408447160036  4.246624360428795  -44.56171135072299  17.454301478937516  120.000000
7.41105  0.000000  0.000000  0.000000  -37.78423780407735  -0.16448936479523418  -9.466369528348691  50.343214158254916  12.023033844552613  9.163359597171334  59.700359148002256  3.941650642213088  -42.93528250201398  17.66889558589024  120.000000
7.468500000000001  0.000000  0.000000  0.000000  -37.8418363572019  -0.12340330972345309  -8.865660396874885  50.477338359798026  11.5893133632407  8.859302639273668  57.16857822464012  3.6903809610623504  -40.762771413262456  17.9047246824976  120.000000
7.52595  0.000000  0.000000  0.000000  -37.87944068932944  -0.08782662805600353  -8.302979310854155  50.59654675428916  11.197965147331429  8.568768186839122  54.124246769129584  3.4786224963704586  -38.0872543795879  18.135369559822585  120.000000
7.5834  0.000000  0.000000  0.000000  -37.89658034857395  -0.05687402424945201  -7.783691034063679  50.699286600296816  10.849770326331162  8.293983124916826  50.67201871427479  3.2958931082755716  -34.9935300155515  18.352028165646463  120.000000
7.64085  0.000000  0.000000  0.000000  -37.89962266504602  -0.03157438750717326  -7.31234007016408  50.782060997221826  10.545429892128494  8.035547615720441  46.93869977086204  3.135010496188317  -31.59916738768042  18.558483281614564  120.000000
7.6983  0.000000  0.000000  0.000000  -37.89790105145762  -0.01396370439218725  -6.892233706888367  50.841520055712365  10.286472313040973  7.792453404684783  43.05920933092724  2.9909000188778787  -28.03633812132913  18.762384383286367  120.000000
7.75575  0.000000  0.000000  0.000000  -37.900519818224836  -0.006339057060064484  -6.525442051097309  50.87580465907622  10.075734013198968  7.562337229907869  39.15389190181385  2.859902644266074  -24.42506175635719  18.968367280660146  120.000000
7.8132  0.000000  0.000000  0.000000  -37.91482149902123  -0.011156751557554473  -6.213047575488613  50.88471460865004  9.916806735070383  7.342105576906613  35.331908396846124  2.7397647178853664  -20.8743661611914  19.175505245708347  120.000000
7.87065  0.000000  0.000000  0.000000  -37.94544142144452  -0.0319919069256736  -5.9555378264946945  50.86946109272366  9.812902937711579  7.128722770231772  31.718154571698484  2.6294738290906503  -17.507767480556005  19.379128437866438  120.000000
7.928100000000001  0.000000  0.000000  0.000000  -37.993518754652676  -0.0741743035458329  -5.753255577593012  50.83250264794727  9.765653615988228  6.919658332691354  28.50180023069247  2.5286009981704565  -14.511164307911821  19.575744485285814  120.000000
7.98555  0.000000  0.000000  0.000000  -38.05596373013473  -0.1446067155810193  -5.606560519188103  50.7771414192436  9.77446396002292  6.712818152653561  25.946131766512227  2.4362495788213288  -12.141584114609325  19.76830372260352  120.000000
8.043  0.000000  0.000000  0.000000  -38.12582928538618  -0.24978260489084608  -5.515461177472788  50.70536812237462  9.837181638025502  6.505847352378794  24.32006612015044  2.351021730917213  -10.658808261913268  19.96861331875426  120.000000
8.10045  0.000000  0.000000  0.000000  -38.19486562368544  -0.3921999701750299  -5.478446532078048  50.61203868481192  9.952070337888323  6.295703259787965  23.706586894758498  2.2726929046166338  -10.135840738063164  20.192674871757585  120.000000
8.1579  0.000000  0.000000  0.000000  -38.25827165066855  -0.5655876619239004  -5.492527085976872  50.47819230864373  10.120182674156336  6.07798913314491  23.778716642528163  2.2042626812664023  -10.240327678185901  20.449448746421112  120.000000
8.21535  0.000000  0.000000  0.000000  -38.31552722169912  -0.7551404949581665  -5.557775628450511  50.275135956237875  10.343048740747701  5.847901560340715  23.877288318119298  2.152233534905499  -10.317746801336465  20.729152384174867  120.000000
